<svg width="8" height="241" viewBox="0 0 8 241" fill="none" xmlns="http://www.w3.org/2000/svg">
<path d="M4.39677 0.266076C4.2015 0.0708134 3.88492 0.0708134 3.68966 0.266076L0.507679 3.44806C0.312417 3.64332 0.312417 3.9599 0.507679 4.15516C0.702941 4.35043 1.01952 4.35043 1.21479 4.15516L4.04321 1.32674L6.87164 4.15516C7.0669 4.35042 7.38348 4.35042 7.57875 4.15516C7.77401 3.9599 7.77401 3.64332 7.57875 3.44806L4.39677 0.266076ZM3.68967 240.825C3.88493 241.021 4.20151 241.021 4.39678 240.825L7.57876 237.643C7.77402 237.448 7.77402 237.131 7.57876 236.936C7.38349 236.741 7.06691 236.741 6.87165 236.936L4.04322 239.765L1.2148 236.936C1.01953 236.741 0.702952 236.741 0.507689 236.936C0.312427 237.131 0.312427 237.448 0.507689 237.643L3.68967 240.825ZM3.54321 0.619629L3.54322 240.472L4.54322 240.472L4.54321 0.619629L3.54321 0.619629Z" fill="black"/>
</svg>
