<svg width="171" height="72" viewBox="0 0 171 72" fill="none" xmlns="http://www.w3.org/2000/svg">
<mask id="path-1-inside-1_61_64" fill="white">
<path d="M0.5 0H170.5V72H0.5V0Z"/>
</mask>
<path d="M170.5 71H0.5V73H170.5V71Z" fill="black" mask="url(#path-1-inside-1_61_64)"/>
<path fill-rule="evenodd" clip-rule="evenodd" d="M12.4692 19.8298C10.892 19.8298 9.62256 21.1034 9.62256 22.6853V49.3149C9.62256 50.8969 10.892 52.1705 12.4692 52.1705H28.7327C28.7179 52.1395 28.7037 52.1112 28.6884 52.0771L28.4321 51.575C27.7923 50.321 27.2787 47.5113 27.0316 43.9158L26.8792 41.6981L25.8102 41.774C23.9602 41.9053 22.3489 41.5188 20.767 40.5648C20.3112 40.2899 19.9069 40.065 19.8687 40.065C19.7615 40.065 19.7973 43.0182 19.917 44.0516C20.0813 45.4701 20.5429 45.6701 21.187 44.6022C21.6475 43.8386 22.1855 43.1931 22.3614 43.1931C22.7136 43.1931 22.6588 43.6437 22.1659 44.7975C20.1648 49.4813 19.1114 50.4002 17.543 48.8317C16.8283 48.117 16.3713 47.2593 15.975 45.8898C15.6209 44.6662 15.1086 42.1373 14.922 40.6907C14.6267 38.4018 14.737 38.6667 13.9188 38.2779C13.3114 37.9893 13.1396 37.8338 12.9144 37.3686C12.5624 36.6415 12.4553 35.8808 12.6841 35.7331C12.778 35.6726 13.2772 35.5667 13.7932 35.4979L14.7313 35.3727L14.8296 34.6221C15.2386 31.5001 16.2359 26.7637 16.8044 25.2443C17.2896 23.9477 18.9997 22.624 20.6849 22.2407C22.1275 21.9126 22.263 22.108 21.8523 23.9237C21.2144 26.7437 20.8349 30.1015 20.7708 33.4957L20.7377 35.2475H26.3128L27.5382 32.3696C28.2121 30.7868 29.5165 27.7194 30.4368 25.5532C31.5127 23.0209 32.2243 21.5064 32.43 21.3119C32.6059 21.1455 33.2002 20.7938 33.7508 20.5305L34.752 20.0517C34.9507 19.9523 35.143 19.8754 35.3264 19.8297L12.4692 19.8298ZM35.9796 19.8298C36.1305 19.8788 36.27 19.9678 36.395 20.1074L36.9234 20.4565C37.6218 20.9181 37.9412 21.4619 37.9419 22.19C37.9428 23.3131 34.139 41.2946 32.6651 47.1344C31.831 50.4396 31.7369 50.613 30.6881 50.7757C30.0591 50.8732 29.4336 51.3925 29.4336 51.8171C29.4194 51.9473 29.4022 52.0631 29.3835 52.1703H39.1156C40.6928 52.1703 41.9622 50.8967 41.9622 49.3147V22.6852C41.9622 21.1031 40.6927 19.8296 39.1156 19.8296L35.9796 19.8298Z" fill="#ED1B23"/>
<path d="M44.962 23.4087H54.8798L58.7072 38.7316L62.5178 23.4087H72.4023V48.5915H66.2453V29.3869L61.4694 48.5915H55.8948L51.1355 29.3869V48.5915H44.9619L44.962 23.4087Z" fill="#ED1B23"/>
<path d="M92.875 44.4345H84.2885L83.107 48.5915H75.4023L84.5714 23.4087H92.7918L101.961 48.5915H94.0732L92.875 44.4345ZM91.2942 38.9892L88.5984 29.9365L85.9193 38.9892H91.2942Z" fill="#ED1B23"/>
<path d="M104.961 48.5915V23.4087H117.525C119.854 23.4087 121.635 23.6148 122.866 24.0271C124.098 24.4394 125.091 25.2066 125.845 26.3289C126.599 27.4397 126.977 28.7968 126.977 30.4C126.977 31.7971 126.688 33.0052 126.111 34.0245C125.534 35.0322 124.741 35.851 123.732 36.4808C123.088 36.8816 122.206 37.2138 121.086 37.4771C121.984 37.7863 122.639 38.0955 123.049 38.4047C123.327 38.6109 123.726 39.0517 124.248 39.7274C124.78 40.403 125.135 40.9241 125.313 41.2905L128.957 48.591H120.437L116.41 40.8955C115.9 39.8991 115.445 39.2521 115.045 38.9544C114.502 38.565 113.886 38.3703 113.198 38.3703H112.532V48.5911L104.961 48.5915ZM112.532 33.612H115.711C116.055 33.612 116.72 33.4975 117.708 33.2685C118.207 33.1654 118.612 32.902 118.922 32.4783C119.244 32.0546 119.405 31.5678 119.405 31.0181C119.405 30.2051 119.155 29.5809 118.656 29.1457C118.157 28.7106 117.219 28.493 115.844 28.493H112.532L112.532 33.612Z" fill="#ED1B23"/>
<path d="M131.957 23.4089H154.872V29.6273H147.184V48.5909H139.645V29.6273H131.957L131.957 23.4089Z" fill="#ED1B23"/>
<path d="M159.625 34.2468C158.658 34.2468 157.872 35.0332 157.872 35.9999C157.872 36.9666 158.658 37.753 159.625 37.753C160.591 37.753 161.378 36.9666 161.378 35.9999C161.378 35.0333 160.591 34.2468 159.625 34.2468ZM159.625 34.5031C160.453 34.5031 161.121 35.1717 161.121 35.9999C161.121 36.3949 160.968 36.7524 160.719 37.0196L160.419 36.5498C160.338 36.4255 160.253 36.3221 160.163 36.2392C160.12 36.2009 160.058 36.1621 159.976 36.1228C160.2 36.092 160.366 36.0198 160.473 35.9061C160.581 35.7924 160.634 35.6526 160.634 35.4868C160.634 35.3582 160.602 35.2407 160.537 35.1344C160.472 35.0281 160.386 34.9543 160.277 34.9129C160.169 34.8704 160.011 34.8491 159.802 34.8491H158.766V37.1858H159.076V36.1483H159.434C159.514 36.1483 159.571 36.1519 159.606 36.1593C159.654 36.171 159.701 36.1919 159.747 36.2216C159.793 36.2514 159.846 36.3034 159.904 36.3778C159.963 36.4522 160.037 36.5594 160.128 36.6997L160.437 37.1858H160.537C160.284 37.38 159.969 37.4966 159.625 37.4966C158.797 37.4966 158.128 36.828 158.128 35.9998C158.128 35.1717 158.797 34.5031 159.625 34.5031ZM159.076 35.1073H159.815C159.988 35.1073 160.115 35.143 160.194 35.2142C160.275 35.2854 160.315 35.3763 160.315 35.4868C160.315 35.5622 160.295 35.6322 160.253 35.697C160.212 35.7608 160.151 35.8077 160.072 35.8374C159.992 35.8661 159.881 35.8805 159.74 35.8805H159.076V35.1073Z" fill="#ED1B23"/>
</svg>
