<svg width="35" height="33" viewBox="0 0 35 33" fill="none" xmlns="http://www.w3.org/2000/svg">
<path d="M34.4487 1.51994C34.2765 3.26405 33.9957 4.99572 33.608 6.7049C32.9454 9.72101 31.8211 12.6167 30.2748 15.2897C28.2593 18.7056 25.4934 21.6184 22.1863 23.8079C18.534 26.3168 14.5536 28.3107 10.3572 29.7335C7.03389 30.8625 3.6356 31.7572 0.187256 32.4112C0.302066 29.5854 0.187256 26.0893 0.535389 22.8079C0.794637 20.4525 1.31313 18.2044 2.35753 16.3934C5.19123 11.6014 9.32481 7.71056 14.2792 5.17164L14.3237 5.14942C19.8012 2.33102 28.286 -0.450343 34.4487 1.51994Z" fill="#00214E"/>
</svg>
