<svg width="85" height="37" viewBox="0 0 85 37" fill="none" xmlns="http://www.w3.org/2000/svg">
<path d="M84.5509 22.3873C59.7935 41.4499 25.2613 41.2974 0.673096 22.0169L18.6945 13.5691C19.5528 13.1657 20.3765 12.6925 21.1574 12.1544C21.3944 11.9914 21.6314 11.821 21.8574 11.6433C23.8187 10.1426 25.4332 8.23629 26.5905 6.05463C27.4654 4.37834 28.0467 2.56451 28.3089 0.691895C28.5705 0.945337 28.8449 1.18515 29.1311 1.41038C31.4018 3.0909 33.8663 4.49226 36.4715 5.58428C37.7363 6.11185 39.0296 6.5681 40.3455 6.95088C44.3097 8.10684 48.4488 8.54458 52.5671 8.24342C53.1375 8.19898 53.7115 8.14343 54.2819 8.10269L54.3374 9.98409V10.1063L58.8187 11.9284L84.5509 22.3873Z" fill="#F2D4CF"/>
</svg>
