<svg width="70" height="42" viewBox="0 0 70 42" fill="none" xmlns="http://www.w3.org/2000/svg">
<path d="M70 29.6249C49.3387 45.5336 20.52 45.4063 0 29.3158L15.0397 22.2658C15.5001 22.0481 15.9489 21.8067 16.3842 21.5425L16.7304 21.3262C16.854 21.2489 16.9746 21.1685 17.0951 21.0851C18.9926 19.7761 20.5476 18.0302 21.6293 15.9946C22.8656 13.661 23.2736 11.0833 23.2921 8.45616C23.2921 6.68824 23.1963 4.92031 23.1778 3.14929C23.1654 2.17055 23.1551 1.19077 23.1469 0.209961L23.765 0.519039L25.3722 1.35046L34.728 2.93912L44.3465 4.57723L44.6371 14.4677L44.7823 19.3728L48.3274 20.8162L51.1091 21.9412L70 29.6249Z" fill="#F2D4CF"/>
</svg>
